<svg style="display: none" xmlns="http://www.w3.org/2000/svg">

    <symbol id="header-logo-image" viewBox="0 0 155 60">
        <g clip-path="url(#clip0_177515_3079)">
        <path d="M4.95672 0H0V35.7986H4.95672V22.5177C4.95672 20.2709 5.51557 18.4984 6.63326 17.2502C7.75095 16.002 9.2817 15.353 11.1769 15.353C12.8049 15.353 14.1655 15.9521 15.2589 17.1004C16.3523 18.2738 16.9112 19.7466 16.9112 21.5191V35.8236H21.8922V21.5191C21.8922 18.2238 20.9932 15.6276 19.1951 13.6804C17.3971 11.7332 15.0402 10.7596 12.1731 10.7596C11.347 10.7596 10.5209 10.8594 9.71906 11.0841C8.89294 11.3088 8.2369 11.5584 7.70235 11.833C7.16781 12.1076 6.65756 12.4072 6.1959 12.7567C5.73424 13.1062 5.41838 13.3558 5.27259 13.5056C5.1268 13.6554 5.00532 13.7552 4.95672 13.8301V0Z" fill="#F0145A"/>
        <path d="M32.9726 0H27.8628V35.7689H32.9726V0Z" fill="#323264"/>
        <path d="M63.1114 25.2933L63.3669 22.7383C63.3669 19.3148 62.2428 16.4532 59.9433 14.1538C57.6439 11.8544 54.7824 10.7302 51.3588 10.7302C47.9352 10.7302 44.9715 11.9566 42.5188 14.4093C40.0661 16.862 38.8397 19.7746 38.8397 23.2493C38.8397 26.8262 40.1172 29.8921 42.621 32.447C45.1248 35.002 48.1396 36.2794 51.6143 36.2794C52.9429 36.2794 54.1692 36.075 55.3956 35.7173C56.6219 35.3086 57.6439 34.8998 58.3593 34.491C59.1258 34.0311 59.8922 33.5201 60.5565 32.958C61.2208 32.3959 61.6807 31.9872 61.8851 31.7317C62.0895 31.4762 62.2428 31.3229 62.345 31.1696L59.0236 27.8482L58.2571 28.8191C57.7461 29.4322 56.8774 30.0454 55.6511 30.7097C54.3736 31.374 53.0451 31.6806 51.6143 31.6806C49.6215 31.6806 47.9352 31.0674 46.5045 29.7899C45.0737 28.5125 44.205 27.0306 43.9495 25.2933H63.1114ZM51.3588 15.0736C53.2494 15.0736 54.7824 15.6357 56.0599 16.7087C57.2862 17.8329 58.0527 19.2126 58.3593 20.9499H44.1539C44.6138 19.2126 45.4314 17.8329 46.7089 16.7087C47.9352 15.6357 49.5193 15.0736 51.3588 15.0736Z" fill="#323264"/>
        <path d="M86.9429 34.2866C86.9429 36.5349 86.2786 38.3744 84.8989 39.8052C83.5704 41.1849 81.8841 41.9002 79.7891 41.9002C78.8693 41.9002 77.9496 41.7469 77.0809 41.4914C76.2122 41.2359 75.5479 40.9294 74.9859 40.5717C74.4238 40.214 73.9128 39.8563 73.4018 39.3964C72.9419 38.9365 72.6353 38.6299 72.482 38.4766C72.3287 38.3233 72.2265 38.17 72.1244 38.0679L68.803 41.3892L69.2117 41.9002C69.4672 42.2579 69.9271 42.7178 70.5403 43.2288C71.1535 43.6887 71.8689 44.1997 72.6864 44.7106C73.504 45.1705 74.526 45.5793 75.8034 45.937C77.0809 46.2947 78.4094 46.4991 79.7891 46.4991C83.2638 46.4991 86.1253 45.3238 88.5269 42.9733C90.8774 40.5717 92.0527 37.7102 92.0527 34.2355V11.2412H86.9429V13.7961L86.0742 13.0297C85.5121 12.5187 84.6435 12.0077 83.4171 11.4967C82.1907 10.9857 80.8622 10.7302 79.5336 10.7302C76.4166 10.7302 73.7595 11.9055 71.4601 14.3071C69.1606 16.7087 68.0365 19.5702 68.0365 22.9938C68.0365 26.4174 69.1606 29.2789 71.4601 31.6806C73.7595 34.0822 76.4166 35.2574 79.5336 35.2574C80.4023 35.2574 81.2199 35.1552 82.0885 34.9509C82.9061 34.6954 83.5704 34.4399 84.1325 34.1844C84.6945 33.9289 85.2055 33.6223 85.6654 33.2646C86.1253 32.9069 86.483 32.6514 86.5852 32.5492L86.9429 32.1915V34.2866ZM73.1463 22.9938C73.1463 20.8477 73.8106 19.0593 75.1903 17.5774C76.5699 16.0956 78.2051 15.3291 80.0446 15.3291C81.8841 15.3291 83.5193 16.0956 84.8989 17.5774C86.2275 19.0593 86.9429 20.8477 86.9429 22.9938C86.9429 25.14 86.2275 26.9284 84.8989 28.4103C83.5193 29.8921 81.8841 30.6586 80.0446 30.6586C78.2051 30.6586 76.5699 29.8921 75.1903 28.4103C73.8106 26.9284 73.1463 25.14 73.1463 22.9938Z" fill="#323264"/>
        <path d="M118.724 35.7684V19.9279C118.724 17.3219 117.753 15.1247 115.863 13.3873C113.972 11.5989 111.519 10.7302 108.504 10.7302C107.329 10.7302 106.154 10.8835 105.03 11.1901C103.906 11.5478 102.986 11.9055 102.321 12.3143C101.657 12.7231 100.993 13.1829 100.38 13.745C99.7666 14.256 99.4089 14.6137 99.2045 14.8181C99.0512 15.0225 98.8979 15.1758 98.7957 15.3291L102.117 18.6505L102.781 17.7818C103.19 17.2197 103.906 16.7087 104.979 16.1467C106.052 15.5846 107.227 15.3291 108.504 15.3291C109.986 15.3291 111.213 15.789 112.183 16.6576C113.154 17.5263 113.614 18.6505 113.614 19.9279L104.672 21.4609C102.475 21.8186 100.686 22.6872 99.46 24.0669C98.1825 25.4466 97.5182 27.1328 97.5182 29.1256C97.5182 31.0163 98.3358 32.6514 99.971 34.0822C101.657 35.564 103.701 36.2794 106.205 36.2794C107.074 36.2794 107.891 36.1772 108.709 35.9217C109.577 35.7173 110.242 35.4618 110.804 35.2064C111.366 34.9509 111.877 34.6443 112.337 34.2866C112.797 33.9289 113.103 33.6734 113.308 33.5712C113.461 33.4179 113.563 33.2646 113.614 33.2135V35.7684H118.724ZM106.971 31.6806C105.643 31.6806 104.57 31.374 103.803 30.7608C102.986 30.1476 102.628 29.4322 102.628 28.6147C102.628 27.746 102.884 26.9795 103.446 26.4174C104.008 25.8554 104.774 25.4466 105.694 25.2933L113.614 24.0158V24.5268C113.614 26.8262 113.052 28.5636 111.877 29.841C110.702 31.0674 109.066 31.6806 106.971 31.6806Z" fill="#323264"/>
        <path d="M130 0H124.89V35.7689H130V0Z" fill="#323264"/>
        <path d="M0 53.1185H1.59915V58.7253H5.06396V60.0283H0V53.1185Z" fill="#323264"/>
        <path d="M15.5016 58.5477H12.2934L11.6814 60.0283H10.0428L13.1226 53.1185H14.702L17.7917 60.0283H16.1136L15.5016 58.5477ZM14.9982 57.3335L13.9025 54.688L12.8067 57.3335H14.9982Z" fill="#323264"/>
        <path d="M33.5121 53.1185L31.2516 60.0283H29.534L28.0138 55.3494L26.4443 60.0283H24.7366L22.4662 53.1185H24.1245L25.6842 57.9751L27.313 53.1185H28.7937L30.3731 58.0146L31.9821 53.1185H33.5121Z" fill="#323264"/>
        <path d="M50.5232 60.1468C49.819 60.1468 49.1807 59.9954 48.6082 59.6927C48.0422 59.3834 47.5947 58.959 47.2657 58.4193C46.9432 57.8731 46.782 57.2578 46.782 56.5734C46.782 55.889 46.9432 55.277 47.2657 54.7373C47.5947 54.1911 48.0422 53.7667 48.6082 53.464C49.1807 53.1547 49.8223 53 50.5331 53C51.1319 53 51.6716 53.1053 52.152 53.3159C52.6389 53.5265 53.0469 53.8292 53.376 54.224L52.3494 55.1717C51.8821 54.6321 51.303 54.3622 50.612 54.3622C50.1843 54.3622 49.8026 54.4577 49.467 54.6485C49.1313 54.8328 48.8681 55.0927 48.6773 55.4283C48.493 55.764 48.4009 56.1456 48.4009 56.5734C48.4009 57.0012 48.493 57.3828 48.6773 57.7185C48.8681 58.0541 49.1313 58.3173 49.467 58.5082C49.8026 58.6924 50.1843 58.7846 50.612 58.7846C51.303 58.7846 51.8821 58.5115 52.3494 57.9653L53.376 58.9129C53.0469 59.3143 52.6389 59.6203 52.152 59.8309C51.665 60.0415 51.1221 60.1468 50.5232 60.1468Z" fill="#323264"/>
        <path d="M62.5933 60.1468C61.876 60.1468 61.2278 59.9922 60.6487 59.6829C60.0761 59.3736 59.6253 58.9491 59.2963 58.4095C58.9738 57.8632 58.8126 57.2512 58.8126 56.5734C58.8126 55.8956 58.9738 55.2868 59.2963 54.7472C59.6253 54.201 60.0761 53.7733 60.6487 53.464C61.2278 53.1547 61.876 53 62.5933 53C63.3106 53 63.9555 53.1547 64.5281 53.464C65.1006 53.7733 65.5514 54.201 65.8804 54.7472C66.2095 55.2868 66.374 55.8956 66.374 56.5734C66.374 57.2512 66.2095 57.8632 65.8804 58.4095C65.5514 58.9491 65.1006 59.3736 64.5281 59.6829C63.9555 59.9922 63.3106 60.1468 62.5933 60.1468ZM62.5933 58.7846C63.0013 58.7846 63.3698 58.6924 63.6989 58.5082C64.0279 58.3173 64.2846 58.0541 64.4688 57.7185C64.6597 57.3828 64.7551 57.0012 64.7551 56.5734C64.7551 56.1456 64.6597 55.764 64.4688 55.4283C64.2846 55.0927 64.0279 54.8328 63.6989 54.6485C63.3698 54.4577 63.0013 54.3622 62.5933 54.3622C62.1853 54.3622 61.8168 54.4577 61.4877 54.6485C61.1587 54.8328 60.8987 55.0927 60.7079 55.4283C60.5236 55.764 60.4315 56.1456 60.4315 56.5734C60.4315 57.0012 60.5236 57.3828 60.7079 57.7185C60.8987 58.0541 61.1587 58.3173 61.4877 58.5082C61.8168 58.6924 62.1853 58.7846 62.5933 58.7846Z" fill="#323264"/>
        <path d="M78.7995 60.0283L78.7896 55.8824L76.7561 59.2979H76.0355L74.0119 55.9713V60.0283H72.5115V53.1185H73.8342L76.4205 57.4125L78.9673 53.1185H80.2802L80.2999 60.0283H78.7995Z" fill="#323264"/>
        <path d="M89.8659 53.1185C90.478 53.1185 91.0077 53.2205 91.4552 53.4245C91.9093 53.6285 92.2581 53.918 92.5016 54.2931C92.7451 54.6682 92.8668 55.1125 92.8668 55.6258C92.8668 56.1325 92.7451 56.5767 92.5016 56.9584C92.2581 57.3335 91.9093 57.623 91.4552 57.8271C91.0077 58.0245 90.478 58.1232 89.8659 58.1232H88.4741V60.0283H86.8749V53.1185H89.8659ZM89.7771 56.8202C90.2575 56.8202 90.6227 56.7182 90.8728 56.5142C91.1229 56.3036 91.2479 56.0074 91.2479 55.6258C91.2479 55.2375 91.1229 54.9414 90.8728 54.7373C90.6227 54.5268 90.2575 54.4215 89.7771 54.4215H88.4741V56.8202H89.7771Z" fill="#323264"/>
        <path d="M103.148 58.5477H99.9396L99.3276 60.0283H97.6889L100.769 53.1185H102.348L105.438 60.0283H103.76L103.148 58.5477ZM102.644 57.3335L101.549 54.688L100.453 57.3335H102.644Z" fill="#323264"/>
        <path d="M117.428 53.1185V60.0283H116.115L112.67 55.8331V60.0283H111.09V53.1185H112.413L115.848 57.3137V53.1185H117.428Z" fill="#323264"/>
        <path d="M127.315 57.5803V60.0283H125.716V57.5605L123.041 53.1185H124.739L126.585 56.1884L128.43 53.1185H130L127.315 57.5803Z" fill="#323264"/>
        <path fill-rule="evenodd" clip-rule="evenodd" d="M149.175 0H155L139.825 47H134L149.175 0Z" fill="#F0145A"/>
        </g>
        <defs>
        <clipPath id="clip0_177515_3079">
        <rect width="155" height="60" fill="white"/>
        </clipPath>
        </defs>
    </symbol>

    <symbol id="burger-mobile" viewBox="0 0 24 24">
      <path
        d="M3 6h18M3 12h18M3 18h18"
        stroke="currentColor"
        stroke-width="2"
        stroke-linecap="round"
      />
    </symbol>

    <symbol id="mobile-nav-close" viewBox="0 0 24 24">
        <path
          d="M6 6l12 12M18 6L6 18"
          stroke="#F0145A"
          stroke-width="2"
          stroke-linecap="round"
        />
    </symbol>

    <symbol id="about-circle-star" viewBox="0 0 32 32">
      <path d="M16.097 3.55298C9.25252 3.55298 3.68402 9.12148 3.68402 15.966C3.68402 22.811 9.25252 28.38 16.097 28.38C22.9415 28.38 28.51 22.811 28.51 15.966C28.5105 9.12148 22.942 3.55298 16.097 3.55298ZM22.9555 15.0585V15.059L19.362 17.659L20.746 21.889C20.768 21.955 20.7795 22.0255 20.7795 22.0975C20.7795 22.467 20.4805 22.767 20.111 22.767C19.964 22.767 19.829 22.72 19.719 22.6405L16.0975 20.021L12.476 22.6405C12.366 22.72 12.231 22.767 12.0845 22.767C11.7145 22.767 11.415 22.4675 11.415 22.0975C11.415 22.025 11.427 21.955 11.449 21.889L12.8335 17.659L9.24002 15.059V15.0585C9.07202 14.9375 8.96302 14.74 8.96302 14.517C8.96302 14.1475 9.26202 13.8485 9.63202 13.8485H14.0805L15.458 9.63798C15.542 9.36448 15.7965 9.16548 16.098 9.16548C16.399 9.16548 16.654 9.36448 16.7375 9.63798L18.115 13.8485H22.5635C22.933 13.8485 23.2325 14.1475 23.2325 14.517C23.232 14.74 23.123 14.9375 22.9555 15.0585Z" fill="#F0145A"/>
    </symbol>

    <symbol id="about-flag" viewBox="0 0 32 32">
      <path d="M27.1135 6.3054C26.9445 6.1374 26.7455 6.0529 26.5155 6.0529C26.401 6.0529 26.1595 6.1469 25.7925 6.3324C25.425 6.5184 25.035 6.7254 24.6245 6.9564C24.213 7.1859 23.726 7.3939 23.164 7.5799C22.6025 7.7654 22.0825 7.8594 21.604 7.8594C21.162 7.8594 20.772 7.7754 20.436 7.6069C19.3215 7.0849 18.352 6.6954 17.529 6.4384C16.706 6.1819 15.821 6.0529 14.8735 6.0529C13.2375 6.0529 11.374 6.5849 9.285 7.6469C8.854 7.8619 8.545 8.0284 8.345 8.1504L8.1465 6.6949C8.595 6.3054 8.8845 5.7379 8.8845 5.0974C8.8845 3.9239 7.9335 2.9729 6.76 2.9729C5.5865 2.9729 4.6355 3.9239 4.6355 5.0974C4.6355 5.8629 5.0445 6.5284 5.6515 6.9024L8.5215 27.9474C8.607 28.5739 9.143 29.0284 9.7585 29.0284C9.8145 29.0284 9.8715 29.0249 9.929 29.0174C10.613 28.9234 11.092 28.2939 10.9985 27.6099L9.845 19.1514C11.938 18.1129 13.7485 17.5894 15.2715 17.5894C15.918 17.5894 16.5485 17.6859 17.163 17.8809C17.778 18.0764 18.2895 18.2884 18.6965 18.5179C19.1035 18.7479 19.584 18.9609 20.1365 19.1549C20.69 19.3499 21.2365 19.4474 21.776 19.4474C23.139 19.4474 24.7715 18.9339 26.674 17.9074C26.913 17.7834 27.088 17.6614 27.1985 17.5419C27.309 17.4224 27.3645 17.2524 27.3645 17.0314V6.9029C27.3645 6.6734 27.281 6.4739 27.1135 6.3054Z" fill="#F0145A"/>
    </symbol>

    <symbol id="about-briefcase" viewBox="0 0 32 32">
      <path d="M17.232 18.332V17.774C17.232 17.0935 16.6805 16.542 16.0005 16.542C15.32 16.542 14.7685 17.0935 14.7685 17.774V18.332C14.7685 19.0125 15.32 19.564 16.0005 19.564C16.68 19.564 17.232 19.0125 17.232 18.332Z" fill="#F0145A"/>
      <path d="M18.077 19.0136C17.804 19.9071 16.9815 20.5631 16.0005 20.5631C15.019 20.5631 14.1965 19.9071 13.9235 19.0136H5.43904C4.90354 19.0136 4.39754 18.8891 3.94354 18.6731V24.3066C3.94354 25.4066 4.84354 26.3066 5.94354 26.3066H26.0565C27.1565 26.3066 28.0565 25.4066 28.0565 24.3066V18.6736C27.602 18.8896 27.0965 19.0141 26.561 19.0141H18.077V19.0136Z" fill="#F0145A"/>
      <path d="M26.4775 8.8976H21.677C21.387 7.0846 19.8165 5.6936 17.923 5.6936H14.0765C12.183 5.6936 10.613 7.0846 10.3225 8.8976H5.52253C4.37653 8.8976 3.43903 9.7976 3.43903 10.8976V15.5141C3.43903 16.6186 4.33453 17.5141 5.43903 17.5141H13.829C13.8575 16.9386 14.1045 16.4216 14.495 16.0476C14.507 16.0361 14.521 16.0271 14.5335 16.0161C14.62 15.9366 14.71 15.8616 14.8085 15.7966C14.8435 15.7731 14.8835 15.7571 14.92 15.7361C15.001 15.6896 15.081 15.6411 15.1685 15.6051C15.237 15.5766 15.311 15.5601 15.383 15.5386C15.445 15.5201 15.504 15.4956 15.5685 15.4826C15.708 15.4541 15.8525 15.4391 16 15.4391C16.148 15.4391 16.292 15.4546 16.4315 15.4826C16.4955 15.4956 16.5545 15.5201 16.6165 15.5386C16.6885 15.5601 16.7625 15.5766 16.831 15.6056C16.918 15.6416 16.9975 15.6896 17.0785 15.7361C17.1155 15.7576 17.1555 15.7736 17.191 15.7971C17.2895 15.8616 17.379 15.9366 17.4655 16.0161C17.478 16.0276 17.4925 16.0366 17.5045 16.0486C17.8955 16.4226 18.142 16.9396 18.1705 17.5151H26.5605C27.665 17.5151 28.5605 16.6196 28.5605 15.5151V10.8986C28.561 9.7976 27.6235 8.8976 26.4775 8.8976ZM12.248 8.8976C12.503 8.1271 13.2215 7.5656 14.0765 7.5656H17.923C18.778 7.5656 19.4965 8.1271 19.7515 8.8976H12.248Z" fill="#F0145A"/>
    </symbol>

    <symbol id="header-facebook-logo" viewBox="0 0 24 24">
      <g clip-path="url(#clip0_22721_6715)">
      <path d="M24 12.0733C24 5.40541 18.6274 0 12 0C5.37258 0 0 5.40541 0 12.0733C0 18.0995 4.38823 23.0943 10.125 24V15.5633H7.07813V12.0733H10.125V9.41343C10.125 6.38755 11.9165 4.71615 14.6576 4.71615C15.9705 4.71615 17.3438 4.95195 17.3438 4.95195V7.92313H15.8306C14.3399 7.92313 13.875 8.85379 13.875 9.80857V12.0733H17.2031L16.6711 15.5633H13.875V24C19.6118 23.0943 24 18.0995 24 12.0733Z" fill="currentColor"/>
      </g>
      <defs>
      <clipPath id="clip0_22721_6715">
      <rect width="24" height="24" fill="white"/>
      </clipPath>
      </defs>
    </symbol>

    <symbol id="circle-separator" viewBox="0 0 16 16">
      <circle cx="8" cy="8" r="8" fill="#currentColor"/>
    </symbol>

    <symbol id="dot-separator" viewBox="0 0 6 6">
      <circle cx="3" cy="3" r="3" fill="#currentColor"/>
    </symbol>

    <symbol id="contact-facebook-icon" viewBox="0 0 153 38">
      <g clip-path="url(#clip0_22724_6546)">
      <path d="M38 19.1161C38 8.55857 29.4934 0 19 0C8.50658 0 0 8.55857 0 19.1161C0 28.6575 6.94803 36.5659 16.0312 38V24.6419H11.207V19.1161H16.0312V14.9046C16.0312 10.1136 18.8678 7.46723 23.2078 7.46723C25.2866 7.46723 27.4609 7.84059 27.4609 7.84059V12.545H25.0651C22.7048 12.545 21.9688 14.0185 21.9688 15.5302V19.1161H27.2383L26.3959 24.6419H21.9688V38C31.052 36.5659 38 28.6575 38 19.1161Z" fill="#currentColor"/>
      </g>
      <path d="M53.064 17.144C52.192 17.144 51.404 16.956 50.7 16.58C50.004 16.204 49.456 15.688 49.056 15.032C48.664 14.368 48.468 13.624 48.468 12.8C48.468 11.976 48.664 11.236 49.056 10.58C49.456 9.916 50.004 9.396 50.7 9.02C51.404 8.644 52.192 8.456 53.064 8.456C53.936 8.456 54.72 8.644 55.416 9.02C56.112 9.396 56.66 9.916 57.06 10.58C57.46 11.236 57.66 11.976 57.66 12.8C57.66 13.624 57.46 14.368 57.06 15.032C56.66 15.688 56.112 16.204 55.416 16.58C54.72 16.956 53.936 17.144 53.064 17.144ZM53.064 15.488C53.56 15.488 54.008 15.376 54.408 15.152C54.808 14.92 55.12 14.6 55.344 14.192C55.576 13.784 55.692 13.32 55.692 12.8C55.692 12.28 55.576 11.816 55.344 11.408C55.12 11 54.808 10.684 54.408 10.46C54.008 10.228 53.56 10.112 53.064 10.112C52.568 10.112 52.12 10.228 51.72 10.46C51.32 10.684 51.004 11 50.772 11.408C50.548 11.816 50.436 12.28 50.436 12.8C50.436 13.32 50.548 13.784 50.772 14.192C51.004 14.6 51.32 14.92 51.72 15.152C52.12 15.376 52.568 15.488 53.064 15.488ZM63.853 17.144C62.653 17.144 61.717 16.812 61.045 16.148C60.381 15.484 60.049 14.536 60.049 13.304V8.6H61.993V13.232C61.993 14.736 62.617 15.488 63.865 15.488C64.473 15.488 64.937 15.308 65.257 14.948C65.577 14.58 65.737 14.008 65.737 13.232V8.6H67.657V13.304C67.657 14.536 67.321 15.484 66.649 16.148C65.985 16.812 65.053 17.144 63.853 17.144ZM75.93 17L74.31 14.66H74.214H72.522V17H70.578V8.6H74.214C74.958 8.6 75.602 8.724 76.146 8.972C76.698 9.22 77.122 9.572 77.418 10.028C77.714 10.484 77.862 11.024 77.862 11.648C77.862 12.272 77.71 12.812 77.406 13.268C77.11 13.716 76.686 14.06 76.134 14.3L78.018 17H75.93ZM75.894 11.648C75.894 11.176 75.742 10.816 75.438 10.568C75.134 10.312 74.69 10.184 74.106 10.184H72.522V13.112H74.106C74.69 13.112 75.134 12.984 75.438 12.728C75.742 12.472 75.894 12.112 75.894 11.648ZM88.4367 8.6C89.1807 8.6 89.8247 8.724 90.3687 8.972C90.9207 9.22 91.3447 9.572 91.6407 10.028C91.9367 10.484 92.0847 11.024 92.0847 11.648C92.0847 12.264 91.9367 12.804 91.6407 13.268C91.3447 13.724 90.9207 14.076 90.3687 14.324C89.8247 14.564 89.1807 14.684 88.4367 14.684H86.7447V17H84.8007V8.6H88.4367ZM88.3287 13.1C88.9127 13.1 89.3567 12.976 89.6607 12.728C89.9647 12.472 90.1167 12.112 90.1167 11.648C90.1167 11.176 89.9647 10.816 89.6607 10.568C89.3567 10.312 88.9127 10.184 88.3287 10.184H86.7447V13.1H88.3287ZM99.5827 15.2H95.6827L94.9387 17H92.9467L96.6907 8.6H98.6107L102.367 17H100.327L99.5827 15.2ZM98.9707 13.724L97.6387 10.508L96.3067 13.724H98.9707ZM109.797 12.668H111.573V16.076C111.117 16.42 110.589 16.684 109.989 16.868C109.389 17.052 108.785 17.144 108.177 17.144C107.305 17.144 106.521 16.96 105.825 16.592C105.129 16.216 104.581 15.7 104.181 15.044C103.789 14.38 103.593 13.632 103.593 12.8C103.593 11.968 103.789 11.224 104.181 10.568C104.581 9.904 105.133 9.388 105.837 9.02C106.541 8.644 107.333 8.456 108.213 8.456C108.949 8.456 109.617 8.58 110.217 8.828C110.817 9.076 111.321 9.436 111.729 9.908L110.481 11.06C109.881 10.428 109.157 10.112 108.309 10.112C107.773 10.112 107.297 10.224 106.881 10.448C106.465 10.672 106.141 10.988 105.909 11.396C105.677 11.804 105.561 12.272 105.561 12.8C105.561 13.32 105.677 13.784 105.909 14.192C106.141 14.6 106.461 14.92 106.869 15.152C107.285 15.376 107.757 15.488 108.285 15.488C108.845 15.488 109.349 15.368 109.797 15.128V12.668ZM120.883 15.44V17H114.379V8.6H120.727V10.16H116.311V11.984H120.211V13.496H116.311V15.44H120.883ZM53.064 33.144C52.192 33.144 51.404 32.956 50.7 32.58C50.004 32.204 49.456 31.688 49.056 31.032C48.664 30.368 48.468 29.624 48.468 28.8C48.468 27.976 48.664 27.236 49.056 26.58C49.456 25.916 50.004 25.396 50.7 25.02C51.404 24.644 52.192 24.456 53.064 24.456C53.936 24.456 54.72 24.644 55.416 25.02C56.112 25.396 56.66 25.916 57.06 26.58C57.46 27.236 57.66 27.976 57.66 28.8C57.66 29.624 57.46 30.368 57.06 31.032C56.66 31.688 56.112 32.204 55.416 32.58C54.72 32.956 53.936 33.144 53.064 33.144ZM53.064 31.488C53.56 31.488 54.008 31.376 54.408 31.152C54.808 30.92 55.12 30.6 55.344 30.192C55.576 29.784 55.692 29.32 55.692 28.8C55.692 28.28 55.576 27.816 55.344 27.408C55.12 27 54.808 26.684 54.408 26.46C54.008 26.228 53.56 26.112 53.064 26.112C52.568 26.112 52.12 26.228 51.72 26.46C51.32 26.684 51.004 27 50.772 27.408C50.548 27.816 50.436 28.28 50.436 28.8C50.436 29.32 50.548 29.784 50.772 30.192C51.004 30.6 51.32 30.92 51.72 31.152C52.12 31.376 52.568 31.488 53.064 31.488ZM67.825 24.6V33H66.229L62.041 27.9V33H60.121V24.6H61.729L65.905 29.7V24.6H67.825ZM77.1548 26.16V28.38H81.0428V29.94H77.1548V33H75.2108V24.6H81.5588V26.16H77.1548ZM89.0553 31.2H85.1553L84.4113 33H82.4193L86.1633 24.6H88.0833L91.8393 33H89.7993L89.0553 31.2ZM88.4433 29.724L87.1113 26.508L85.7793 29.724H88.4433ZM97.6137 33.144C96.7577 33.144 95.9817 32.96 95.2857 32.592C94.5977 32.216 94.0537 31.7 93.6537 31.044C93.2617 30.38 93.0657 29.632 93.0657 28.8C93.0657 27.968 93.2617 27.224 93.6537 26.568C94.0537 25.904 94.5977 25.388 95.2857 25.02C95.9817 24.644 96.7617 24.456 97.6257 24.456C98.3537 24.456 99.0097 24.584 99.5937 24.84C100.186 25.096 100.682 25.464 101.082 25.944L99.8337 27.096C99.2657 26.44 98.5617 26.112 97.7217 26.112C97.2017 26.112 96.7377 26.228 96.3297 26.46C95.9217 26.684 95.6017 27 95.3697 27.408C95.1457 27.816 95.0337 28.28 95.0337 28.8C95.0337 29.32 95.1457 29.784 95.3697 30.192C95.6017 30.6 95.9217 30.92 96.3297 31.152C96.7377 31.376 97.2017 31.488 97.7217 31.488C98.5617 31.488 99.2657 31.156 99.8337 30.492L101.082 31.644C100.682 32.132 100.186 32.504 99.5937 32.76C99.0017 33.016 98.3417 33.144 97.6137 33.144ZM109.898 31.44V33H103.394V24.6H109.742V26.16H105.326V27.984H109.226V29.496H105.326V31.44H109.898ZM118.613 28.632C119.093 28.784 119.469 29.04 119.741 29.4C120.013 29.752 120.149 30.188 120.149 30.708C120.149 31.444 119.861 32.012 119.285 32.412C118.717 32.804 117.885 33 116.789 33H112.445V24.6H116.549C117.573 24.6 118.357 24.796 118.901 25.188C119.453 25.58 119.729 26.112 119.729 26.784C119.729 27.192 119.629 27.556 119.429 27.876C119.237 28.196 118.965 28.448 118.613 28.632ZM114.377 26.064V28.044H116.309C116.789 28.044 117.153 27.96 117.401 27.792C117.649 27.624 117.773 27.376 117.773 27.048C117.773 26.72 117.649 26.476 117.401 26.316C117.153 26.148 116.789 26.064 116.309 26.064H114.377ZM116.645 31.536C117.157 31.536 117.541 31.452 117.797 31.284C118.061 31.116 118.193 30.856 118.193 30.504C118.193 29.808 117.677 29.46 116.645 29.46H114.377V31.536H116.645ZM126.689 33.144C125.817 33.144 125.029 32.956 124.325 32.58C123.629 32.204 123.081 31.688 122.681 31.032C122.289 30.368 122.093 29.624 122.093 28.8C122.093 27.976 122.289 27.236 122.681 26.58C123.081 25.916 123.629 25.396 124.325 25.02C125.029 24.644 125.817 24.456 126.689 24.456C127.561 24.456 128.345 24.644 129.041 25.02C129.737 25.396 130.285 25.916 130.685 26.58C131.085 27.236 131.285 27.976 131.285 28.8C131.285 29.624 131.085 30.368 130.685 31.032C130.285 31.688 129.737 32.204 129.041 32.58C128.345 32.956 127.561 33.144 126.689 33.144ZM126.689 31.488C127.185 31.488 127.633 31.376 128.033 31.152C128.433 30.92 128.745 30.6 128.969 30.192C129.201 29.784 129.317 29.32 129.317 28.8C129.317 28.28 129.201 27.816 128.969 27.408C128.745 27 128.433 26.684 128.033 26.46C127.633 26.228 127.185 26.112 126.689 26.112C126.193 26.112 125.745 26.228 125.345 26.46C124.945 26.684 124.629 27 124.397 27.408C124.173 27.816 124.061 28.28 124.061 28.8C124.061 29.32 124.173 29.784 124.397 30.192C124.629 30.6 124.945 30.92 125.345 31.152C125.745 31.376 126.193 31.488 126.689 31.488ZM137.814 33.144C136.942 33.144 136.154 32.956 135.45 32.58C134.754 32.204 134.206 31.688 133.806 31.032C133.414 30.368 133.218 29.624 133.218 28.8C133.218 27.976 133.414 27.236 133.806 26.58C134.206 25.916 134.754 25.396 135.45 25.02C136.154 24.644 136.942 24.456 137.814 24.456C138.686 24.456 139.47 24.644 140.166 25.02C140.862 25.396 141.41 25.916 141.81 26.58C142.21 27.236 142.41 27.976 142.41 28.8C142.41 29.624 142.21 30.368 141.81 31.032C141.41 31.688 140.862 32.204 140.166 32.58C139.47 32.956 138.686 33.144 137.814 33.144ZM137.814 31.488C138.31 31.488 138.758 31.376 139.158 31.152C139.558 30.92 139.87 30.6 140.094 30.192C140.326 29.784 140.442 29.32 140.442 28.8C140.442 28.28 140.326 27.816 140.094 27.408C139.87 27 139.558 26.684 139.158 26.46C138.758 26.228 138.31 26.112 137.814 26.112C137.318 26.112 136.87 26.228 136.47 26.46C136.07 26.684 135.754 27 135.522 27.408C135.298 27.816 135.186 28.28 135.186 28.8C135.186 29.32 135.298 29.784 135.522 30.192C135.754 30.6 136.07 30.92 136.47 31.152C136.87 31.376 137.318 31.488 137.814 31.488ZM147.931 29.7L146.803 30.876V33H144.871V24.6H146.803V28.524L150.523 24.6H152.683L149.203 28.344L152.887 33H150.619L147.931 29.7Z" fill="#currentColor"/>
      <defs>
      <clipPath id="clip0_22724_6546">
      <rect width="38" height="38" fill="white"/>
      </clipPath>
      </defs>
    </symbol>


    </svg>

