<svg width="18" height="14" viewBox="0 0 18 14" fill="none" xmlns="http://www.w3.org/2000/svg">
<path d="M4.35 11.7748C2.49166 10.5582 1.29166 8.72483 1.29166 7.1165C1.29166 4.38317 4.74166 1.03316 9 1.03316C10.7417 1.03316 12.3583 1.5915 13.6583 2.45816" stroke="#727272" stroke-width="1.5" stroke-linecap="round" stroke-linejoin="round"/>
<path d="M15.5414 4.17517C16.2839 5.11683 16.7164 6.1585 16.7164 7.11683C16.7164 9.85017 13.2581 13.2002 8.99975 13.2002C8.24142 13.2002 7.50058 13.0918 6.80808 12.9002" stroke="#727272" stroke-width="1.5" stroke-linecap="round" stroke-linejoin="round"/>
<path d="M7.13808 8.9725C6.64225 8.48167 6.36475 7.8125 6.36725 7.115C6.36392 5.66084 7.54058 4.47917 8.99558 4.47667C9.69558 4.475 10.3673 4.7525 10.8623 5.2475" stroke="#727272" stroke-width="1.5" stroke-linecap="round" stroke-linejoin="round"/>
<path d="M11.5912 7.58258C11.3962 8.65925 10.5537 9.50342 9.47708 9.70092" stroke="#727272" stroke-width="1.5" stroke-linecap="round" stroke-linejoin="round"/>
</svg>
